<svg role='presentation' viewBox="0 0 188 60" fill="none" xmlns="http://www.w3.org/2000/svg">
<path fill-rule="evenodd" clip-rule="evenodd" d="M75.2426 0L48.9855 60H42.5895L57.053 26.988H27.2206L39.0491 0H45.4451L36.2632 20.976H46.896L56.0663 0H62.4623L53.2804 20.976H59.6764L68.8583 0H75.2426ZM36.2051 60L48.022 33.012H18.1896L32.6531 0H26.2571L0 60H6.39597L15.5778 39.024H21.9738L12.7919 60H19.1763L28.3582 39.024H38.991L29.8092 60H36.2051ZM158 5H105C91.1929 5 80 16.1929 80 30C80 43.8071 91.1929 55 105 55H158C171.807 55 183 43.8071 183 30C183 16.1929 171.807 5 158 5ZM105 0C88.4315 0 75 13.4315 75 30C75 46.5685 88.4315 60 105 60H158C174.569 60 188 46.5685 188 30C188 13.4315 174.569 0 158 0H105ZM103.964 33.8391H98.4204C98.5194 36.1821 99.4104 38.0301 101.093 39.3831C102.776 40.7361 105.053 41.4291 107.891 41.4291C110.729 41.4291 113.006 40.7691 114.755 39.4161C116.471 38.0961 117.329 36.3141 117.329 34.0701C117.329 32.0571 116.735 30.5391 115.547 29.5161C114.326 28.4931 112.313 27.6021 109.475 26.7771L107.66 26.2491C106.637 25.9521 105.878 25.6221 105.449 25.2591C104.987 24.8961 104.756 24.3681 104.723 23.6421C104.723 22.9491 104.987 22.3551 105.548 21.9261C106.076 21.4971 106.835 21.2661 107.792 21.2661C109.838 21.2661 111.026 22.1901 111.389 24.0711H116.801C116.702 21.8271 115.844 20.0781 114.293 18.8241C112.709 17.6031 110.597 16.9761 107.99 16.9761C105.317 16.9761 103.139 17.6361 101.522 18.9231C99.9054 20.2101 99.0804 21.9261 99.0804 24.0381C99.0804 25.8531 99.6414 27.3051 100.763 28.3941C101.885 29.4831 103.766 30.3741 106.373 31.1331L107.99 31.5951C109.442 32.0241 110.432 32.3871 110.96 32.7171C111.488 33.0471 111.752 33.5751 111.752 34.3341C111.752 35.1591 111.422 35.8191 110.762 36.3141C110.102 36.8091 109.211 37.0731 108.122 37.0731C105.68 37.0731 104.294 35.9841 103.964 33.8391ZM125.872 41.0001V17.4051H120.46V41.0001H125.872ZM140.343 22.0581V41.0001H134.931V22.0581H128.694V17.4051H146.58V22.0581H140.343ZM154.762 31.3641H164.101V26.8101H154.762V22.0251H164.926V17.4051H149.416V41.0001H165.058V36.3801H154.762V31.3641Z" fill="black"/>
</svg>
