<svg width="60" height="24" viewBox="0 0 60 24" fill="none" xmlns="http://www.w3.org/2000/svg">
<path d="M3.36569 14.2502V23.2324H0V1.16968H5.32883C7.68545 1.16968 9.25512 1.93107 10.4059 3.10074C11.5271 4.24173 12.2019 5.88148 12.2019 7.66468C12.2019 9.53837 11.5017 11.2046 10.3509 12.3765C9.67821 13.0496 8.86376 13.5771 7.82718 13.8971L13.7441 23.2302H9.84533L4.15264 14.248H3.3678L3.36569 14.2502ZM7.74045 10.2115C8.38566 9.53837 8.72202 8.71959 8.72202 7.75296C8.72202 6.72894 8.38566 5.96755 7.74045 5.29443C7.15024 4.68091 6.3654 4.3278 4.88036 4.3278H3.33819V11.1737H4.88036C6.36752 11.1737 7.15235 10.8228 7.74045 10.2071V10.2115Z" fill="#E1DED4"/>
<path d="M36.1357 23.2324L34.033 18.4036H24.8603L22.7576 23.2324H19.2227L29.489 0L39.7257 23.2324H36.1357ZM29.4318 7.86992L26.2629 15.1859H32.6008L29.4868 7.86992H29.4318Z" fill="#E1DED4"/>
<path d="M56.6239 1.16968H60.3259L52.9493 13.7514V23.2324H49.5836V13.7514L42.207 1.16968H45.9662L51.295 10.3571L56.6239 1.16968Z" fill="#E1DED4"/>
</svg>